<?xml version="1.0" standalone="no"?>
<!DOCTYPE svg PUBLIC "-//W3C//DTD SVG 20010904//EN"
 "http://www.w3.org/TR/2001/REC-SVG-20010904/DTD/svg10.dtd">
<svg version="1.0" xmlns="http://www.w3.org/2000/svg"
 width="1024.000000pt" height="1024.000000pt" viewBox="0 0 1024.000000 1024.000000"
 preserveAspectRatio="xMidYMid meet">
<metadata>
Created by potrace 1.14, written by Peter Selinger 2001-2017
</metadata>
<g transform="translate(0.000000,1024.000000) scale(0.100000,-0.100000)"
fill="#000000" stroke="none">
<path d="M0 5120 l0 -5120 5120 0 5120 0 0 5120 0 5120 -5120 0 -5120 0 0
-5120z m2109 3423 c140 -81 390 -261 531 -382 194 -165 443 -429 593 -629 421
-558 677 -1180 779 -1899 20 -140 23 -198 23 -513 0 -391 -11 -505 -76 -817
-187 -900 -692 -1723 -1409 -2296 -187 -150 -476 -343 -500 -335 -6 2 -78 120
-160 262 l-149 259 93 58 c227 139 420 295 626 506 162 165 282 311 394 477
298 447 477 927 552 1481 25 183 25 627 0 810 -79 590 -276 1093 -608 1560
-251 353 -599 680 -963 904 l-94 58 151 261 c83 144 155 262 161 262 6 0 31
-12 56 -27z m3354 -883 c283 -88 413 -418 266 -676 -32 -56 -118 -142 -167
-168 l-32 -17 0 -240 0 -240 53 65 c95 117 222 203 367 248 l75 23 1100 3
c740 2 1122 -1 1169 -8 159 -25 289 -91 407 -209 85 -85 138 -172 177 -289 25
-74 26 -89 30 -349 l4 -273 207 0 c282 0 358 -21 471 -133 65 -65 105 -135
125 -218 22 -94 22 -748 0 -834 -46 -177 -188 -312 -364 -345 -30 -5 -145 -10
-257 -10 l-202 0 -7 -33 c-12 -58 -92 -211 -142 -268 -70 -83 -137 -134 -238
-185 -158 -78 -94 -75 -1368 -72 l-1132 3 -78 27 c-148 50 -278 144 -363 263
-47 67 -95 164 -113 230 l-10 40 -198 -3 c-121 -2 -221 1 -258 8 -142 27 -266
123 -333 258 l-37 76 -3 407 c-3 392 -2 409 18 470 65 191 238 318 433 319
l57 0 0 634 0 634 -50 32 c-145 93 -229 280 -203 451 29 184 175 347 350 388
69 16 177 12 246 -9z m-3896 -228 c394 -261 695 -589 920 -1002 153 -281 271
-658 314 -1005 16 -129 16 -481 0 -610 -103 -835 -542 -1549 -1235 -2007 -65
-43 -123 -77 -129 -75 -10 3 -306 504 -307 519 0 4 37 31 83 60 684 439 1066
1245 972 2053 -75 636 -423 1201 -957 1552 -54 36 -98 67 -98 69 0 5 203 359
267 467 19 31 38 57 43 57 5 0 62 -35 127 -78z"/>
<path d="M5298 7259 c-22 -12 -24 -62 -4 -78 46 -38 111 25 71 69 -20 22 -41
25 -67 9z"/>
<path d="M6033 6224 c-57 -21 -128 -86 -161 -148 l-27 -51 0 -980 0 -980 23
-46 c31 -63 86 -117 152 -148 l55 -26 1095 0 1095 0 57 28 c65 32 121 89 152
156 21 46 21 46 21 1011 l0 965 -26 55 c-37 78 -71 114 -141 149 l-61 31
-1096 -1 c-941 0 -1102 -3 -1138 -15z m628 -465 c54 -27 106 -87 129 -147 19
-50 20 -77 20 -492 0 -415 -1 -442 -20 -492 -47 -124 -167 -193 -289 -167 -73
15 -129 61 -168 138 l-33 63 0 458 0 458 33 63 c17 34 49 76 69 92 71 57 178
68 259 26z m1230 0 c52 -26 113 -100 132 -160 15 -45 17 -107 17 -479 0 -483
-2 -495 -73 -576 -55 -62 -107 -87 -182 -88 -111 0 -204 68 -242 178 -16 46
-18 94 -18 486 0 464 1 474 51 552 67 104 206 143 315 87z"/>
<path d="M5037 5102 c-15 -17 -17 -55 -17 -344 0 -265 3 -328 14 -337 9 -8 70
-11 197 -9 l184 3 3 340 c2 311 1 341 -15 353 -12 8 -66 12 -183 12 -149 0
-169 -2 -183 -18z"/>
<path d="M8927 5102 c-15 -17 -17 -55 -17 -343 0 -240 3 -328 12 -337 8 -8 66
-12 195 -12 170 0 183 1 193 19 6 13 10 137 10 335 0 303 -1 317 -20 336 -18
18 -33 20 -188 20 -151 0 -171 -2 -185 -18z"/>
</g>
</svg>
